<svg width="23" height="18" viewBox="0 0 23 18" fill="none" xmlns="http://www.w3.org/2000/svg">
<path d="M0 3.99702C3.19909 1.40534 7.19285 -0.00607102 11.31 1.96299e-05C15.595 1.96299e-05 19.53 1.49702 22.62 3.99702L21.364 5.55302C18.5202 3.24909 14.9699 1.99446 11.31 2.00002C7.501 2.00002 4.004 3.33002 1.256 5.55302L0 3.99702ZM3.141 7.88702C5.4516 6.01502 8.33624 4.99556 11.31 5.00002C14.404 5.00002 17.246 6.08102 19.479 7.88602L18.222 9.44202C16.2668 7.85835 13.8261 6.99603 11.31 7.00002C8.692 7.00002 6.287 7.91502 4.398 9.44202L3.141 7.88602V7.88702ZM6.283 11.777C7.70485 10.6249 9.47998 9.99742 11.31 10C13.214 10 14.963 10.665 16.337 11.776L15.08 13.332C14.0136 12.4682 12.6823 11.9979 11.31 12C9.882 12 8.57 12.499 7.54 13.332L6.283 11.776V11.777ZM9.425 15.667C9.95805 15.2347 10.6237 14.9992 11.31 15C12.024 15 12.68 15.25 13.195 15.666L11.31 18L9.425 15.667Z" fill="black"/>
</svg>
